# xmcd
#
# Track frame offsets: 
#        150
#        11722
#        25560
#        38705
#        50225
#        62457
#        75695
#        88840
#        100672
#        113805
#        125930
#        139047
#        150460
#        163110
#        173647
#        185387
#
# Disc length: 2629 seconds
#
# Revision: 2
# Processed by: cddbd v1.5.2PL0 Copyright (c) Steve Scherf et al.
# Submitted via: ExactAudioCopy v0.95b3
#
DISCID=ca0a4310
DTITLE=Robert Johnson - King Of The Delta Blues Singers
DYEAR=1961
DGENRE=Blues
TTITLE0=Crossroads Blues
TTITLE1=Terraplane Blues
TTITLE2=Come On In My Kitchen
TTITLE3=Walking Blues
TTITLE4=Last Fair Deal Gone Down
TTITLE5=32-20 Blues
TTITLE6=Kindhearted Woman Blues
TTITLE7=If I Had Possession Over Judgment Day
TTITLE8=Preaching Blues
TTITLE9=When You Got A Good Friend
TTITLE10=Rambling On My Mind
TTITLE11=Stones In My Passway
TTITLE12=Traveling Riverside Blues
TTITLE13=Milkcow's Calf Blues
TTITLE14=Me And The Devil Blues
TTITLE15=Hellhound On My Tail
EXTD=
EXTT0=
EXTT1=
EXTT2=
EXTT3=
EXTT4=
EXTT5=
EXTT6=
EXTT7=
EXTT8=
EXTT9=
EXTT10=
EXTT11=
EXTT12=
EXTT13=
EXTT14=
EXTT15=
PLAYORDER=
